Coordinates
version=1
nRows=11
nColumns=40
inDegrees=yes

Units are S.I. units (second, meters, Newtons, ...)
Angles are in degrees.

endheader
time	pelvis_tilt	pelvis_list	pelvis_rotation	pelvis_tx	pelvis_ty	pelvis_tz	hip_flexion_r	hip_adduction_r	hip_rotation_r	knee_angle_r	knee_angle_r_beta	ankle_angle_r	subtalar_angle_r	mtp_angle_r	hip_flexion_l	hip_adduction_l	hip_rotation_l	knee_angle_l	knee_angle_l_beta	ankle_angle_l	subtalar_angle_l	mtp_angle_l	lumbar_extension	lumbar_bending	lumbar_rotation	arm_flex_r	arm_add_r	arm_rot_r	elbow_flex_r	pro_sup_r	wrist_flex_r	wrist_dev_r	arm_flex_l	arm_add_l	arm_rot_l	elbow_flex_l	pro_sup_l	wrist_flex_l	wrist_dev_l
     27.72328571	     -6.30193023	     -4.22815677	      5.99507379	      1.09714831	      0.92216256	      0.49871968	      4.65481698	      2.71994474	    -17.41519734	     12.93932644	     12.93932644	     15.43361884	     -2.28609804	     -5.03950927	     29.76577148	     -7.64212131	     -1.30625150	     21.94559154	     21.94559154	      6.37169045	     -9.71705913	      7.75597119	     -9.32787028	      3.98016941	      3.27490340	     12.27486279	    -15.59750607	     -1.45960833	     71.93277699	     44.76321674	      0.00000000	      0.00000000	      5.56820340	    -12.98140725	    -10.47118425	     34.24448622	     46.56461454	      0.00000000	      0.00000000
     27.73657143	     -6.06783012	     -4.38128342	      5.94626413	      1.09895939	      0.92180427	      0.49698888	      3.62049291	      2.79209140	    -18.24193210	     12.46777010	     12.46777010	     15.93358172	     -0.37105181	     -4.50771416	     28.78161211	     -7.68771521	     -1.28805087	     21.68321245	     21.68321245	      4.83191778	    -10.65763872	      4.74524307	     -9.25593340	      4.09814438	      2.74396122	     12.39052036	    -15.25781685	      0.51842380	     72.03839817	     44.71316929	      0.00000000	      0.00000000	      5.10604765	    -13.12584761	    -10.72053558	     33.62879477	     46.57112042	      0.00000000	      0.00000000
     27.74985714	     -6.04727340	     -4.44702935	      5.76924346	      1.10036056	      0.92123181	      0.49536185	      3.22722296	      2.74947842	    -18.07608913	     12.66540210	     12.66540210	     16.18926793	     -0.35502158	     -4.52418539	     28.34310637	     -7.72255882	     -1.37811193	     22.04513501	     22.04513501	      4.71051816	    -11.02033065	      4.49267735	     -9.03453319	      4.04302935	      2.91439386	     11.87350090	    -14.72039948	      0.88789945	     71.87567038	     44.70607391	      0.00000000	      0.00000000	      4.90151507	    -13.12752911	    -10.76795016	     33.54596710	     46.57180820	      0.00000000	      0.00000000
     27.76314286	     -6.02670717	     -4.49763588	      5.64251444	      1.10171751	      0.92086478	      0.49353104	      2.81255409	      2.67963883	    -17.96579986	     12.81317059	     12.81317059	     16.36410396	     -0.31207956	     -4.54460338	     27.93284739	     -7.70630532	     -1.32985772	     22.38411930	     22.38411930	      4.83111203	    -11.32482817	      4.29408397	     -8.82436708	      4.01187317	      3.00638190	     11.37061830	    -14.24045556	      1.19240552	     71.74337518	     44.69886797	      0.00000000	      0.00000000	      4.70462548	    -13.10344510	    -10.78498955	     33.44053911	     46.56966320	      0.00000000	      0.00000000
     27.77642857	     -5.98036405	     -4.47909024	      5.58059694	      1.10286506	      0.92069581	      0.49138361	      2.52210902	      2.42127760	    -18.13958627	     13.31364514	     13.31364514	     16.85518711	      0.17327684	     -3.75061467	     27.56022324	     -7.47275588	     -0.77227399	     22.70197584	     22.70197584	      4.16100462	    -12.77463566	      2.77601239	     -8.67767388	      3.89167951	      2.56123189	     11.40632417	    -14.06975653	      3.24906805	     70.93331860	     44.68271977	      0.00000000	      0.00000000	      4.60155209	    -13.19717781	    -10.97619500	     32.67974324	     46.57045876	      0.00000000	      0.00000000
     27.78971429	     -5.85848705	     -4.51532250	      5.51781710	      1.10398119	      0.92080445	      0.48920641	      2.09882660	      2.29395398	    -18.04776497	     13.61237203	     13.61237203	     16.91716034	      0.14208316	     -3.69104368	     27.26713038	     -7.41486420	     -0.55189300	     23.31296979	     23.31296979	      4.52713919	    -13.15076629	      2.52299308	     -8.67840197	      3.86777675	      2.58034052	     10.85941245	    -13.71814961	      3.58557858	     70.68480567	     44.68136885	      0.00000000	      0.00000000	      4.53745401	    -13.15130980	    -11.00711208	     32.62650028	     46.56981309	      0.00000000	      0.00000000
     27.80300000	     -5.72616864	     -4.51630400	      5.46397345	      1.10510870	      0.92111766	      0.48685512	      1.69115401	      2.10583613	    -17.96689905	     13.96985935	     13.96985935	     16.92288949	      0.07153683	     -3.67038972	     26.94279514	     -7.30087675	     -0.31298585	     23.86254923	     23.86254923	      4.96216042	    -13.51944160	      2.34510474	     -8.68636557	      3.81734230	      2.55754675	     10.15933487	    -13.37352168	      3.90857195	     70.39986996	     44.67867756	      0.00000000	      0.00000000	      4.46209318	    -13.07057082	    -10.99889371	     32.54269981	     46.56538953	      0.00000000	      0.00000000
     27.81628571	     -5.59256175	     -4.53299512	      5.42358227	      1.10616087	      0.92149441	      0.48441419	      1.36154547	      1.90059543	    -17.86868329	     14.46329764	     14.46329764	     16.87956651	     -0.03337551	     -3.65613492	     26.64483232	     -7.18788932	     -0.05213672	     24.43504559	     24.43504559	      5.49324260	    -13.95920353	      2.20549184	     -8.72262095	      3.79897193	      2.54909068	      9.55683935	    -13.17717866	      4.22765705	     70.06152268	     44.67830670	      0.00000000	      0.00000000	      4.50209102	    -13.00838224	    -10.97187806	     32.47500072	     46.56034322	      0.00000000	      0.00000000
     27.82957143	     -5.61899536	     -4.52764747	      5.29800507	      1.10684718	      0.92162213	      0.48186152	      1.55696573	      1.53474194	    -17.65407905	     15.61217235	     15.61217235	     16.98760630	     -0.42598968	     -3.59023616	     26.59459430	     -6.99871098	      0.32401618	     25.13264406	     25.13264406	      6.15112484	    -14.65556668	      2.73437010	     -8.61664240	      3.74745718	      2.74502351	      9.10600999	    -13.40047422	      5.10085773	     69.12929207	     44.68658457	      0.00000000	      0.00000000	      4.85813770	    -12.87877228	    -10.77327157	     32.17642894	     46.53080099	      0.00000000	      0.00000000
     27.84285714	     -5.51838648	     -4.51273626	      5.21075298	      1.10778952	      0.92212550	      0.47921038	      1.47561541	      1.22278295	    -17.42574637	     16.50937910	     16.50937910	     17.12680027	     -0.77102251	     -3.09417668	     26.34589246	     -6.82294796	      0.55122909	     25.79638507	     25.79638507	      7.53083483	    -14.80555078	      4.76328480	     -8.56981139	      3.71817894	      2.47780994	      9.07734321	    -13.56509977	      6.87849297	     67.61855869	     44.70895361	      0.00000000	      0.00000000	      5.05364283	    -12.94726440	    -10.06967071	     31.32900962	     46.41184427	      0.00000000	      0.00000000
     27.85614286	     -5.29317248	     -4.58711286	      5.13338481	      1.10895114	      0.92278860	      0.47651015	      1.17804580	      1.02292446	    -17.30014913	     17.23383123	     17.23383123	     16.99133560	     -0.89575478	     -3.17485429	     25.81496493	     -6.79115201	      0.63124822	     26.13680478	     26.13680478	      8.05898176	    -15.01062260	      4.61186294	     -8.69272530	      3.81288799	      2.41739619	      8.31353760	    -13.50776129	      7.04846031	     67.23091162	     44.71451575	      0.00000000	      0.00000000	      5.04354109	    -12.84309494	    -10.03682575	     31.38576479	     46.40541201	      0.00000000	      0.00000000
